HIERARCHY
ROOT joint_Root
{
	OFFSET 0.0 0.0 0.0
	CHANNELS 6 Xposition Yposition Zposition Zrotation Xrotation Yrotation 
	JOINT Hips
	{
		OFFSET -0.726466 93.3139 -2.00062
		CHANNELS 6 Xposition Yposition Zposition Zrotation Xrotation Yrotation 
		JOINT Spine
		{
			OFFSET 15.7357 0.0 0.0
			CHANNELS 6 Xposition Yposition Zposition Zrotation Xrotation Yrotation 
			JOINT Chest
			{
				OFFSET 8.98455 -0.406207 0.0
				CHANNELS 6 Xposition Yposition Zposition Zrotation Xrotation Yrotation 
				JOINT Neck
				{
					OFFSET 16.3773 0.0 0.0
					CHANNELS 6 Xposition Yposition Zposition Zrotation Xrotation Yrotation 
					JOINT Head
					{
						OFFSET 6.45672 0.0 0.0
						CHANNELS 6 Xposition Yposition Zposition Zrotation Xrotation Yrotation 
						End Site
						{
							OFFSET 0.0 0.0 0.0
						}
					}
				}
				JOINT Shoulder_L
				{
					OFFSET 12.9942 -0.242716 4.98039
					CHANNELS 6 Xposition Yposition Zposition Zrotation Xrotation Yrotation 
					JOINT UpperArm_L
					{
						OFFSET 5.34809 0.0 0.0
						CHANNELS 6 Xposition Yposition Zposition Zrotation Xrotation Yrotation 
						JOINT LowerArm_L
						{
							OFFSET 24.3286 1.87007e-05 0.0
							CHANNELS 6 Xposition Yposition Zposition Zrotation Xrotation Yrotation 
							JOINT Hand_L
							{
								OFFSET 22.2916 0.0 0.0
								CHANNELS 6 Xposition Yposition Zposition Zrotation Xrotation Yrotation 
								End Site
								{
									OFFSET 0.0 0.0 0.0
								}
							}
						}
					}
				}
				JOINT Shoulder_R
				{
					OFFSET 12.9945 -0.242716 -4.98039
					CHANNELS 6 Xposition Yposition Zposition Zrotation Xrotation Yrotation 
					JOINT UpperArm_R
					{
						OFFSET -5.34813 0.0 0.0
						CHANNELS 6 Xposition Yposition Zposition Zrotation Xrotation Yrotation 
						JOINT LowerArm_R
						{
							OFFSET -24.3289 0.000322201 0.0
							CHANNELS 6 Xposition Yposition Zposition Zrotation Xrotation Yrotation 
							JOINT Hand_R
							{
								OFFSET -22.2915 -0.000108084 0.0
								CHANNELS 6 Xposition Yposition Zposition Zrotation Xrotation Yrotation 
								End Site
								{
									OFFSET 0.0 0.0 0.0
								}
							}
						}
					}
				}
			}
		}
		JOINT UpperLeg_L
		{
			OFFSET -2.19248 -6.46944 0.0
			CHANNELS 6 Xposition Yposition Zposition Zrotation Xrotation Yrotation 
			JOINT LowerLeg_L
			{
				OFFSET 39.0811 0.0 -1.23785e-05
				CHANNELS 6 Xposition Yposition Zposition Zrotation Xrotation Yrotation 
				JOINT Foot_L
				{
					OFFSET 40.9854 0.0 -1.26872e-05
					CHANNELS 6 Xposition Yposition Zposition Zrotation Xrotation Yrotation 
					JOINT Toes_L
					{
						OFFSET 11.7543 0.0 0.0
						CHANNELS 6 Xposition Yposition Zposition Zrotation Xrotation Yrotation 
						End Site
						{
							OFFSET 0.0 0.0 0.0
						}
					}
				}
			}
		}
		JOINT UpperLeg_R
		{
			OFFSET -2.19251 6.46944 0.0
			CHANNELS 6 Xposition Yposition Zposition Zrotation Xrotation Yrotation 
			JOINT LowerLeg_R
			{
				OFFSET -39.0811 -0.00228153 -0.0401928
				CHANNELS 6 Xposition Yposition Zposition Zrotation Xrotation Yrotation 
				JOINT Foot_R
				{
					OFFSET -40.9854 0.0 0.0
					CHANNELS 6 Xposition Yposition Zposition Zrotation Xrotation Yrotation 
					JOINT Toes_R
					{
						OFFSET -11.7543 0.0 0.0
						CHANNELS 6 Xposition Yposition Zposition Zrotation Xrotation Yrotation 
						End Site
						{
							OFFSET 0.0 0.0 0.0
						}
					}
				}
			}
		}
	}
}
MOTION
Frames:	4
Frame Time:	0.0333333
0.000000 0.000000 0.000000 0.000000 0.000000 -0.000000 -0.473143 92.948700 0.099939 89.042000 -2.477620 1.365950 15.735700 0.000005 -0.000001 99.828700 87.839400 -99.942900 8.984550 -0.406207 -0.000000 -3.507620 0.748485 -0.205444 16.377300 -0.000001 -0.000001 4.193860 -2.495840 3.281550 6.456720 -0.000001 -0.000000 8.501300 -2.241150 -4.023090 12.994200 -0.242716 4.980390 -87.920200 -7.023590 -73.458900 5.348090 -0.000007 -0.000001 -82.854900 -28.053600 -89.088400 24.328600 0.000019 0.000005 13.551800 -0.431463 -91.789500 22.291600 -0.000001 0.000005 16.596300 5.591680 -10.857000 12.994500 -0.242716 -4.980390 89.977700 0.079501 -74.353900 -5.348130 -0.000001 -0.000004 -74.341500 -28.299900 -96.408000 -24.328900 0.000322 -0.000009 16.374500 1.227510 -85.831300 -22.291500 -0.000108 -0.000004 18.113300 5.399490 -2.920930 -2.192480 -6.469440 -0.000000 -176.734000 -8.354420 -1.895550 39.081100 -0.000007 -0.000012 -0.058148 0.196616 16.475200 40.985400 -0.000006 -0.000013 -0.255815 4.248380 -63.355900 11.754300 -0.000000 0.000003 -0.000003 -0.000039 -16.579000 -2.192510 6.469440 -0.000001 179.046000 11.476900 -179.784000 -39.081100 -0.002282 -0.040193 -0.043160 0.190733 13.699000 -40.985400 0.000008 0.000006 1.550900 7.337050 -62.877500 -11.754300 -0.000006 -0.000006 -0.005669 -0.067797 -19.332100
0.000000 0.000000 0.000000 0.000000 0.000000 -0.000000 -0.489225 92.952800 0.098357 88.987900 -2.498380 1.317940 15.735700 0.000005 -0.000001 99.680700 87.835200 -99.767500 8.984550 -0.406207 -0.000000 -3.497660 0.736200 -0.151207 16.377300 -0.000001 -0.000001 4.175830 -2.476510 3.321330 6.456720 -0.000001 -0.000000 8.534270 -2.245030 -4.066450 12.994200 -0.242716 4.980390 -87.927100 -6.963660 -73.377300 5.348090 -0.000007 -0.000001 -82.892400 -28.188800 -89.194500 24.328600 0.000019 0.000005 13.594400 -0.404100 -91.670600 22.291600 -0.000001 0.000005 16.513500 5.591100 -10.824100 12.994500 -0.242716 -4.980390 89.981100 0.066995 -74.286800 -5.348130 -0.000001 -0.000004 -74.217300 -28.347900 -96.686500 -24.328900 0.000322 -0.000009 16.406100 1.324740 -85.511500 -22.291500 -0.000108 -0.000004 18.029300 5.399670 -2.926890 -2.192480 -6.469440 -0.000000 -176.679000 -8.344510 -1.949460 39.081100 -0.000007 -0.000012 -0.057992 0.195878 16.491800 40.985400 -0.000006 -0.000013 -0.268273 4.227980 -63.363000 11.754300 -0.000000 0.000003 -0.000001 -0.000019 -16.578200 -2.192510 6.469440 -0.000001 179.149000 11.426800 -179.816000 -39.081100 -0.002282 -0.040193 -0.040148 0.178830 13.665500 -40.985400 0.000008 0.000006 1.782440 7.291330 -62.896800 -11.754300 -0.000006 -0.000006 -0.005635 -0.067486 -19.319400
0.000000 0.000000 0.000000 0.000000 0.000000 -0.000000 -0.498063 92.957700 0.103977 89.003400 -2.519480 1.275920 15.735700 0.000005 -0.000001 100.039000 87.830800 -100.136000 8.984550 -0.406207 -0.000000 -3.493530 0.765385 -0.170426 16.377300 -0.000001 -0.000001 4.200510 -2.519970 3.344130 6.456720 -0.000001 -0.000000 8.552500 -2.299660 -4.017170 12.994200 -0.242716 4.980390 -87.923400 -6.941490 -73.299500 5.348090 -0.000007 -0.000001 -82.803900 -28.292300 -89.138700 24.328600 0.000019 0.000005 13.601300 -0.382881 -91.582100 22.291600 -0.000001 0.000005 16.534900 5.589710 -10.745500 12.994500 -0.242716 -4.980390 89.981700 0.064622 -74.164100 -5.348130 -0.000001 -0.000004 -74.025500 -28.499000 -96.826800 -24.328900 0.000322 -0.000009 16.343200 1.387090 -85.282100 -22.291500 -0.000108 -0.000004 18.225000 5.399290 -2.914170 -2.192480 -6.469440 -0.000000 -176.691000 -8.337360 -1.954340 39.081100 -0.000007 -0.000012 -0.058831 0.199629 16.420300 40.985400 -0.000006 -0.000013 -0.293330 4.169690 -63.326500 11.754300 -0.000000 0.000003 -0.000002 -0.000035 -16.578900 -2.192510 6.469440 -0.000001 179.142000 11.450000 -179.838000 -39.081100 -0.002282 -0.040193 -0.040007 0.178710 13.631800 -40.985400 0.000008 0.000006 1.813610 7.353260 -62.889300 -11.754300 -0.000006 -0.000006 -0.005558 -0.066764 -19.290000
0.000000 0.000000 0.000000 0.000000 0.000000 -0.000000 -0.520277 92.960600 0.115703 88.966100 -2.489120 1.227380 15.735700 0.000005 -0.000001 99.703900 87.819500 -99.782300 8.984550 -0.406207 -0.000000 -3.467060 0.742363 -0.134358 16.377300 -0.000001 -0.000001 4.149440 -2.486670 3.347660 6.456720 -0.000001 -0.000000 8.537680 -2.244590 -4.001580 12.994200 -0.242716 4.980390 -87.927100 -6.871870 -73.168700 5.348090 -0.000007 -0.000001 -82.555200 -28.430800 -88.708000 24.328600 0.000019 0.000005 13.540300 -0.428791 -91.780100 22.291600 -0.000001 0.000005 16.566600 5.588200 -10.660900 12.994500 -0.242716 -4.980390 89.978900 0.073660 -74.018900 -5.348130 -0.000001 -0.000004 -73.764700 -28.717100 -96.770100 -24.328900 0.000322 -0.000009 15.835200 1.338110 -85.294600 -22.291500 -0.000108 -0.000004 18.241600 5.402300 -3.012140 -2.192480 -6.469440 -0.000000 -176.643000 -8.323790 -1.992650 39.081100 -0.000007 -0.000012 -0.057984 0.196791 16.417400 40.985400 -0.000006 -0.000013 -0.294288 4.246720 -63.333400 11.754300 -0.000000 0.000003 -0.000002 -0.000034 -16.578800 -2.192510 6.469440 -0.000001 179.221000 11.467800 -179.840000 -39.081100 -0.002282 -0.040193 -0.037878 0.170953 13.553300 -40.985400 0.000008 0.000006 1.860350 7.299350 -62.864400 -11.754300 -0.000006 -0.000006 -0.005534 -0.066546 -19.281100
